M48
; DRILL file {KiCad (6.0.11)} date Fri Feb 10 19:10:53 2023
; FORMAT={-:-/ absolute / inch / decimal}
; #@! TF.CreationDate,2023-02-10T19:10:53+09:00
; #@! TF.GenerationSoftware,Kicad,Pcbnew,(6.0.11)
; #@! TF.FileFunction,Plated,1,2,PTH
FMAT,2
INCH
; #@! TA.AperFunction,Plated,PTH,ViaDrill
T1C0.0157
; #@! TA.AperFunction,Plated,PTH,ViaDrill
T2C0.0197
; #@! TA.AperFunction,Plated,PTH,ComponentDrill
T3C0.0295
; #@! TA.AperFunction,Plated,PTH,ComponentDrill
T4C0.0394
; #@! TA.AperFunction,Plated,PTH,ComponentDrill
T5C0.0402
; #@! TA.AperFunction,Plated,PTH,ComponentDrill
T6C0.0472
%
G90
G05
T1
X5.6535Y-3.9803
T2
X6.0748Y-3.7894
T3
X4.275Y-3.582
X4.275Y-3.6607
X4.275Y-3.7395
X4.275Y-3.8182
X4.276Y-4.134
X4.276Y-4.2127
X4.276Y-4.2915
X4.276Y-4.3702
X5.76Y-4.73
X5.8387Y-4.73
X5.9175Y-4.73
X5.9962Y-4.73
X6.075Y-4.73
X6.27Y-4.73
X6.3487Y-4.73
X6.4275Y-4.73
X6.5062Y-4.73
X6.7013Y-4.73
X6.78Y-4.73
X6.8587Y-4.73
X6.9375Y-4.73
T4
X4.5Y-4.7
X4.5Y-4.8
X4.6Y-4.7
X4.6Y-4.8
X4.7Y-4.7
X4.7Y-4.8
X4.8Y-4.7
X4.8Y-4.8
X4.9Y-4.7
X4.9Y-4.8
X5.0Y-4.7
X5.0Y-4.8
X5.1Y-4.7
X5.1Y-4.8
X5.2Y-4.7
X5.2Y-4.8
X5.2333Y-3.7776
X5.2343Y-3.6319
X5.3Y-4.7
X5.3Y-4.8
X5.3333Y-3.7776
X5.3343Y-3.6319
X5.4Y-4.7
X5.4Y-4.8
X5.4343Y-3.6319
X5.5343Y-3.6319
X7.255Y-4.73
X7.355Y-4.73
T5
X5.8492Y-3.65
X5.8492Y-4.35
X5.8583Y-3.9
X5.8583Y-4.0
X5.8583Y-4.1
X5.9492Y-3.65
X5.9492Y-4.35
X6.0492Y-3.65
X6.0492Y-4.35
X6.1492Y-3.65
X6.1492Y-4.35
X6.2492Y-3.65
X6.2492Y-4.35
X6.3492Y-3.65
X6.3492Y-4.35
X6.4492Y-3.65
X6.4492Y-4.35
X6.5492Y-3.65
X6.5492Y-4.35
X6.6492Y-3.65
X6.6492Y-4.35
X6.7492Y-3.65
X6.7492Y-4.35
X6.8492Y-3.65
X6.8492Y-4.35
X6.9492Y-3.65
X6.9492Y-4.35
X7.0492Y-3.65
X7.0492Y-4.35
X7.1492Y-3.65
X7.1492Y-4.35
X7.2492Y-3.65
X7.2492Y-4.35
X7.3492Y-3.65
X7.3492Y-4.35
X7.4492Y-3.65
X7.4492Y-4.35
X7.5492Y-3.65
X7.5492Y-4.35
X7.6492Y-3.65
X7.6492Y-4.35
X7.7492Y-3.65
X7.7492Y-4.35
T6
X4.5488Y-3.25
X4.6866Y-3.25
X4.8244Y-3.25
X4.9622Y-3.25
X5.1Y-3.25
X5.2488Y-3.25
X5.3866Y-3.25
X5.5244Y-3.25
X5.6622Y-3.25
X5.8Y-3.25
X5.9488Y-3.25
X6.0866Y-3.25
X6.2244Y-3.25
X6.3622Y-3.25
X6.5Y-3.25
X6.6488Y-3.25
X6.7866Y-3.25
X6.9244Y-3.25
X7.0622Y-3.25
X7.2Y-3.25
T6
G00X7.6594Y-4.0
M15
G01X7.6201Y-4.0
M16
G05
G00X7.7886Y-4.0394
M15
G01X7.7492Y-4.0394
M16
G05
G00X7.7894Y-3.9606
M15
G01X7.75Y-3.9606
M16
G05
T0
M30
